<?xml version="1.0" encoding="UTF-8"?>
<svg id="Layer_2" data-name="Layer 2" xmlns="http://www.w3.org/2000/svg" viewBox="0 0 459.33 425.9">
  <defs>
    <style>
      .cls-1 {
        stroke-width: 0px;
      }
    </style>
  </defs>
  <g id="Layer_1-2" data-name="Layer 1">
    <g>
      <path class="cls-1" d="M412.54,66.92c-.17-.31-.56-.77-.8-.74-1.19.16-1.92-.76-2.88-1.12-.9-.33-1.87-.64-2.58-1.23-.85-.7-1.66-.71-2.68-.5-.35.08-.71.11-1.07.09-6.08-.32-11.66,2.12-17.4,3.57-1.36.34-2.58,1.02-3.89,1.5-.27.1-.6,0-.89.07-.72.15-1.43.31-2.14.51-.71.2-1.4.47-2.11.67-.88.26-1.78.42-2.63.73-.91.33-1.71,1.11-2.81.47-.17-.1-.55.1-.81.21-2.17.88-4.31,1.8-6.5,2.63-2,.76-3.91,1.66-6.05,2.16-3.8.88-7.51,2.19-11.23,3.42-1.7.56-3.31,1.37-4.99,1.99-3.72,1.37-7.45,2.73-11.19,4.04-3.47,1.21-6.99,2.28-10.43,3.55-1.24.46-3.21-9.26-3.8-10.33-.16-.29-.27-.63-.49-.88-1.45-1.67-.85-4.31-2.74-5.77-.11-.08-.1-.31-.15-.47-.16-.51-.32-1.03-.49-1.53-.68-2.04-2.34-3.73-2.12-6.1.03-.3-.29-.67-.51-.96-.77-1.02-1.53-1.99-1.68-3.36-.07-.62-.77-1.73-.94-1.69-.96.26-1.05-.49-1.39-.95-1.08-1.48-2.13-2.99-3.23-4.46-1.69-2.28-3.4-4.54-5.08-6.82-.24-.33-.34-.75-.59-1.08-.65-.86-1.34-1.7-2.01-2.54.08-.06.17-.13.25-.19.36.26.72.53,1.08.79l.21-.23c-.26-.3-.55-.57-.77-.9-1.31-1.99-3.63-2.88-5.09-4.79-1.63-2.15-3.91-3.81-5.59-5.93-2.29-2.89-5.12-5.06-8.17-6.99-4.01-2.55-8.13-4.93-12.06-7.59-2.51-1.7-5.15-2.91-8.08-3.65-1.57-.39-3.4-.71-4.51-1.73-1.1-1-2.37-1.29-3.54-1.67-1.71-.57-3.62-.62-5.45-.76-2.5-.18-5.02-.19-7.52-.37-1.98-.14-3.95-.54-5.93-.64-2.66-.12-5.34.02-8.01-.09-.75-.03-1.46-.29-2.18-.51-1.32-.41-2.64.53-3.93.6-3.41.18-6.86-.24-10.25.57-.33.08-.68.07-1.03.05-1.21-3.19-4.54-9.62-11.28-7.6-6.89,2.06-5.73,8.73-4.88,11.59-2,.53-3.91,1.34-5.79,2.28-1.48.74-2.99,1.43-4.49,2.11-2.21,1-4.47,1.92-6.65,2.98-3.26,1.59-6.64,2.97-9.3,5.61-1.08,1.07-2.4,1.91-3.69,2.73-1.19.76-2.49,1.35-3.73,2.04-.21.12-.39.33-.52.54-.7,1.14-1.68,1.69-2.98,1.47-.36.6-.59,1.28-1.05,1.7-.77.7-1.79,1.13-2.54,1.84-1.84,1.74-4.09,3.16-4.84,5.81-.03.12-.11.29-.19.31-1.43.34-1.87,1.71-2.72,2.63-2.02,2.22-3.96,4.51-5.9,6.8-.59.7-1.06,1.5-1.63,2.22-1.36,1.75-2.85,3.4-4.08,5.23-2.67,3.97-4.85,8.21-6.85,12.56-1.1,2.41-2.61,4.63-3.74,7.03-1.1,2.33-1.95,4.78-2.92,7.17-1.81,4.47-2.43,9.18-3.08,13.92-.57,4.15-1.45,8.26-2.26,12.38-.44,2.25-1.42,4.47-1.45,6.71-.03,2.67-.59,5.3,0,8.08.74,3.54.62,7.25.93,10.88.26,3.09.43,6.19.93,9.24.39,2.38,1.15,4.72,1.89,7.03.7,2.22-.08,4.94,2.22,6.62.02.02.01.08.03.12.81,2.36,2.05,2.86,4.35,1.99.8-.3,1.76-.26,2.65-.22.97.04,1.92.33,2.88.39.61.04,1.24-.2,1.87-.22,2.37-.07,4.76.05,7.12-.17,3.15-.29,6.28-.83,9.42-1.28.98-.14,1.57.14,1.52,1.24-.02.38.01.76-.03,1.13-.36,3.29-.78,6.58-1.07,9.88-.31,3.41-.4,6.85-.76,10.25-.45,4.16-1.06,8.31-1.64,12.45-.31,2.23-.8,4.44-.98,6.68-.18,2.2.01,4.43-.13,6.64-.11,1.78-.52,3.55-.71,5.33-.43,4.15-.86,8.31-1.18,12.48-.24,3.08-.33,6.17-.41,9.26-.04,1.42-.03,2.77-.55,4.19-.48,1.32-.61,2.85.08,4.29.71,1.48,1.25,2.99,1.05,4.71-.31,2.65,1.36,4.15,3.39,5.36,1.08.64,2.4,1.03,3.21,1.91,1.42,1.55,2.87,2.91,4.91,3.59,2.22.74,4.37,1.87,6.64,2.27,3.65.65,7.39.89,11.09,1.23,6.01.55,12.03.96,18.02,1.6,3.23.34,6.46.65,9.6,1.79,1.63.59,5.75,1.06,7.11-.84.27-.38,1-.65,1.5-.61,1.04.07,2.12.9,2.82.2.79-.78,3.23-.55,4.07-1.28.59-.51,5.31-2.63,6.01-3.08.04-.03.06-.08.1-.11,2.72-2.15,9.97-14.77,9.53-16.21-.23-.76-.65-1.51-1.15-2.12-.5-.59-1.17-1.13-1.87-1.46-1.56-.75-10.86-3.99-12.45-3.93-.96.03-1.92-.02-2.87-.11-1.38-.13-2.63-1.29-4.15-.51-.24.12-.65-.1-.98-.14-.75-.09-1.49-.17-2.24-.25-2.53-.26-5.06-.5-7.6-.76-2.33-.24-4.65-.51-6.98-.77-2.44-.27-4.89-.56-7.33-.81-.84-.09-1.01-.56-.99-1.29.08-3.18.04-.85.13-4.04.01-.41.01-.88.19-1.23,1.05-2.13,1.52-4.33,1.25-6.74-.23-2.05-.27-4.11-.18-6.17.14-3.2-.34-6.39.22-9.6.53-3.02.72-6.1,1.04-9.16.06-.58.1-1.17.1-1.75,0-1.09-.05-2.18-.11-3.26-.16-2.88-.5-5.76-.44-8.63.04-2.02.74-4.02.94-6.04.21-2.08,1.26-4.21-.04-6.3-.1-.16-.02-.41-.05-.62-.28-2.53-.55-5.07-.87-7.6-.13-1.04-.61-2.09-.48-3.08.25-1.94.77-3.84,1.3-5.73.14-.51.61-1.13,1.08-1.33,1.62-.67,3.28-1.27,4.97-1.72,2.49-.66,5.03-1.12,7.53-1.75,1.9-.48,3.73-1.24,5.65-1.64,3.22-.68,6.5-1.13,9.73-1.77,1-.2,1.05-.84,4.39-1.9.96-.31,1.92-.6,2.89-.84,3.64-.91,7.3-1.73,10.91-2.72,2.88-.79,5.7-1.78,8.56-2.65,1.06-.32,2.15-.57,3.27-.86.1.34.2.57.22.81.2,2.25.34,4.52.58,6.77.42,3.9.88,7.8,1.36,11.7.39,3.17.9,6.33,1.24,9.51.33,3.08.42,6.19.75,9.26.53,4.89,1.18,9.77,1.78,14.66.44,3.55.89,7.11,1.36,10.66.07.53.28,1.05.31,1.59.18,2.41.3,4.83.47,7.25.12,1.63.51,3.27.37,4.87-.21,2.44.54,4.65,1.27,6.85.82,2.48,1.93,4.87,3.01,7.26,1.19,2.61,2.71,5.02,4.81,7,.29.27.73.37,1.05.61.6.44,1.2.91,1.75,1.42.27.25.36.69.63.92,1.63,1.42,3.26,2.79,5.3,3.7,2.45,1.09,4.94,1.94,7.6,1.96,3.63.03,7.26-.22,10.89-.33.74-.02,1.55.29,2.22.08.99-.32,1.86-1.02,2.9-.16.06.05.29-.09.45-.15.61-.21,1.2-.46,1.82-.63,1.41-.38,2.82-.74,4.24-1.08,1.12-.27,2.26-.48,3.39-.73,2.84-.64,5.69-1.29,8.53-1.92,1.62-.36,3.33-.5,4.86-1.11,1.95-.77,3.97-1.39,6.02-1.85,1.13-.25,2.19-.43,3.34-.4.25,0,.56-.15.72-.34.86-1,2.02-1.02,3.19-1.19.68-.1,1.32-.54,1.96-.85.43-.21.86-.45,1.26-.72.61-.4,4.35-1.19,7.48-2.66,2.61-2.78,12.73-8.68,12.24-9.73.62-.65,1.19-1.01,1.39-1.52.31-.77-.2-1.31-.88-1.73-.49-.31-.87-.78-1.35-1.13-1.87-1.34-4.69-12.23-7.11-11.96-.61.07-1.7-.07-1.83-.41-.75-1.87-2.28-1.75-3.87-2.15-3.21-.81-6.43-.72-9.62-.55-2.38.13-4.71,1-7.07,1.49-2.48.52-5.02.43-7.51,1.23-3.03.97-6.25,1.37-9.4,1.97-3.33.63-6.66,1.25-10.01,1.75-.44.07-1.37-.56-1.44-.97-.2-.38-.37-.72-.38-1.07-.02-1.55-.42-3.1-.66-4.66-.05-.32-.11-.64-.17-.96-.22-1.01-.52-2.01-.64-3.02-.17-1.4-.11-2.84-.34-4.24-.56-3.32-1.24-6.63-1.84-9.94-.13-.74-.11-1.51-.24-2.25-.53-3.08-1.04-6.16-1.65-9.22-.39-1.95-.91-3.88-1.43-5.81-.53-1.96-1.25-3.88-1.67-5.87-.54-2.54-.81-5.13-1.29-7.69-.49-2.59-1.11-5.15-1.62-7.73-.14-.69.13-1.49-.12-2.11-.78-1.94-1.49-3.86-1.7-5.97-.34-3.41-1.84-6.63-1.66-10.15.02-.46.38-.85.83-.95,1.57-.35,3.15-.71,4.68-1.19,1.22-.39.64-.23,1.66-.78,2.03-1.08,4.39-1.6,6.6-2.36,3.45-1.2,6.9-2.43,10.36-3.6,2.13-.72,4.29-1.39,6.45-2.01,1.24-.36,2.54-.49,3.77-.88,1.83-.58,3.6-1.31,5.41-1.94,1.03-.36,2.06-.76,3.12-.92,5.3-.84,10.16-3.08,15.18-4.79.82-.28,1.68-.44,2.53-.65.04.11.08.22.13.33-.77.53,6.15-.96,8.79-1.77,2.95-.91,5.99-1.55,8.92-2.52,3.97-1.3,7.88-2.8,11.81-4.22,1.45-.52,2.86-1.44,4.33-1.54,2.38-.16,4.18-1.58,6.26-2.34,3.06-1.12,5.97-2.64,9.02-3.8,1.58-.6,3.37-.64,4.98-1.18,3.25-1.09,6.44-2.34,9.66-3.54.46-.17.97-.33,1.32-.65,2.32-2.12,5.39-3.28,7.65-5.46.72-.69,2.21-2.16,3.46-3.46,1.61-2.11.72-2.17,2.46-3.31.8-.53.73-2.06-.04-3.49ZM238.79,38.4c1-1.69,2.05-2.58,3.06-4.26.74-1.24,3.8-2.53,5.26-2.75.28-.04,2.63.73,2.86.58,1.57-1.01,3.18-.7,4.18.93.92,1.5,1.8,3.04,2.57,4.62.24.5.25,1.23.1,1.78-.5,1.8-.99,3.62-1.72,5.34-.81,1.9-2.04,3.63-2.78,5.55-.86,2.23-2.42,3.07-4.65,3.27-.74.06-1.44.63-2.15.97-.05-.12-.1-.25-.16-.37-.52.13-1.08.18-1.55.41-.88.43-1.34.08-1.87-.62-1.74-2.29-5.95-4.14-5.86-6.79.09-2.54,1.46-6.56,2.7-8.65ZM169.51,57.61c.04-1.43.44-2.85.66-4.27.52-3.31,2.51-5.76,4.95-7.75.98-.8,2.58-.83,3.89-1.25.32-.1.68-.27.88-.53,1.25-1.57,4.21-1.73,5.51-.13,1.53,1.89,3.22,3.74,4.26,5.9.81,1.67,1.14,3.76.29,5.71-.59,1.34-1.03,2.8-1.87,3.98-.98,1.38-2.34,2.49-3.48,3.77-.97,1.09-2.02,2.04-3.32,2.72-.94.49-5.41-.66-5.69-.82-1.42-.79-2.78-1.7-4.21-2.48-2.03-1.09-1.92-3.03-1.87-4.84ZM272.13,66.81c-.96,2.55-1.87,5.15-3.18,7.52-.97,1.77-2.42,3.33-3.85,4.78-2.51,2.53-5.11,4.98-7.78,7.33-1.71,1.5-3.5,2.96-5.45,4.11-2.25,1.32-4.72,2.26-7.08,3.39-.56.27-1.05.68-1.61.96-1.48.74-3,1.43-4.48,2.18-1.82.92-3.61,1.9-5.43,2.82-.46.23-1.05.2-1.51.44-1.43.74-2.84,1.47-4.53,1.14-1.9,1.61-4.24,1.43-6.5,1.63-.66.06-1.34.19-1.93.46-3.43,1.6-6.98,2.57-10.79,2.46-.7-.02-1.41.21-2.12.21-2.92.03-5.84.01-8.76.01v-.24c-2.6-.06-5.21.03-7.79-.21-3.07-.29-6.14-.71-9.16-1.34-3.83-.79-7.42-2.23-10.74-4.39-1.23-.8-2.81-1.03-4.18-1.65-3.64-1.63-6.16-4.27-7.05-8.26-.26-1.14,1.41-2.57,2.58-2.26.23.06.53.12.73.03.92-.4,1.68-.05,2.5.36.48.24,1.16.32,1.69.19,2.14-.53,4.04-.22,6.03.83,2.79,1.46,5.72,2.67,8.68,3.76,1.19.44,2.65.11,3.91.43,2.3.58,4.54,1.42,6.83,2.05,1.09.3,2.26.52,3.38.49,1.69-.05,3.39-.32,5.07-.57,1.6-.24,3.18-.6,4.77-.86,1.24-.2,2.5-.26,3.74-.5,1.05-.2,2.07-.57,3.11-.84,1.08-.28,2.16-.53,3.24-.75.27-.06.64.19.85.08,2.26-1.19,5-.66,7.13-1.78,1.75-.92,3.56-.99,5.31-1.54.2-.06.49-.18.6-.1,1.84,1.43,2.72-.57,3.86-1.2,1.55-.85,2.93-1.93,4.83-1.75,1.09.1,1.77-.29,2.37-1.37.53-.96,1.63-1.65,2.59-2.29.9-.6,1.94-.99,2.92-1.48,1.78-.88,3.49-1.83,4.2-3.9.12-.34.57-.78.89-.8,1.38-.09,2.12-1.09,3.04-1.86.7-.59,1.48-1.07,2.19-1.64.23-.18.46-.46.52-.72.36-1.76,1.27-3.02,2.98-3.69.24-.09.47-.47.52-.75.19-.98.76-1.44,1.68-1.8.75-.29,1.42-.91,1.99-1.51.5-.52.9-.89,1.69-1.07,1.24-.28,2.42-.92,3.58-1.48,1.82-.88,2.81-.44,3.29,1.53.11.47.41.89.49,1.36.12.68.35,1.46.13,2.05Z"/>
      <g>
        <path class="cls-1" d="M.86,232.58c-1.25-6.14-1.14-11.7.32-16.67,1.46-4.97,4.11-9.11,7.94-12.42,3.83-3.31,8.68-5.55,14.54-6.74,5.86-1.19,11.2-1.01,16.02.54,4.82,1.55,8.87,4.33,12.15,8.34,3.28,4.01,5.55,9.09,6.8,15.23,1.19,5.86,1.3,11.11.32,15.76-.98,4.64-2.93,8.48-5.86,11.52-2.93,3.04-6.79,5.04-11.59,6.02l-1.26.25-2.84-13.98,1.26-.26c3.68-.75,6.19-2.43,7.52-5.06,1.33-2.62,1.47-6.48.44-11.55-.83-4.07-2.04-7.24-3.63-9.51-1.59-2.26-3.72-3.71-6.37-4.33s-6.07-.51-10.26.34c-4.13.84-7.31,2.07-9.54,3.68-2.23,1.61-3.64,3.77-4.22,6.48-.58,2.71-.46,6.09.36,10.17,1.03,5.08,2.67,8.57,4.91,10.46,2.24,1.9,5.21,2.47,8.89,1.73l1.26-.25,2.84,13.98-1.26.25c-4.74.96-9.07.62-12.98-1.03-3.91-1.65-7.22-4.42-9.93-8.31-2.71-3.9-4.66-8.77-5.85-14.64Z"/>
        <path class="cls-1" d="M24.2,296.35l-7.93-11.96,61.53-10.79,10.11,15.23-33.76,52.64-8.12-12.25,21.85-33.36,5.47-7.83-.52-.78-9.34,1.99-39.28,7.09ZM56.65,322.39l-22.29-33.6,9.61-6.38,22.29,33.6-9.61,6.38Z"/>
        <path class="cls-1" d="M93.51,374.3c-4.67-3.35-8.21-6.82-10.62-10.4-2.41-3.58-3.6-7.2-3.56-10.86.03-3.66,1.34-7.29,3.93-10.9l.3-.42,10.41,7.47-.9,1.25c-1.03,1.44-1.55,2.82-1.55,4.14,0,1.33.67,2.8,2.04,4.41,1.37,1.61,3.62,3.54,6.77,5.8,2.78,1.99,5.01,3.37,6.71,4.13,1.7.76,3.05,1.02,4.08.77,1.02-.25,1.9-.88,2.62-1.9,1.03-1.43,1.3-2.82.82-4.14-.48-1.33-1.76-3.05-3.82-5.16l-11.71-11.23c-2.45-2.45-4.27-4.92-5.47-7.39-1.2-2.48-1.7-4.99-1.49-7.53.21-2.54,1.23-5.09,3.06-7.64,1.26-1.76,2.89-3.22,4.88-4.38,1.99-1.16,4.31-1.83,6.96-2,2.64-.17,5.62.3,8.92,1.41,3.3,1.11,6.92,3.07,10.86,5.9,4.77,3.42,8.2,6.91,10.3,10.49,2.1,3.57,3.02,7.15,2.77,10.72-.25,3.57-1.53,6.98-3.86,10.22l-.3.42-10.48-7.52.7-.97c1.06-1.48,1.61-2.91,1.65-4.28.04-1.37-.62-2.88-1.97-4.51-1.35-1.63-3.58-3.56-6.68-5.79-2.5-1.79-4.57-3.03-6.21-3.72-1.65-.69-3-.92-4.07-.71-1.07.22-1.97.83-2.7,1.85-.63.88-.97,1.74-1.01,2.58-.05.84.21,1.71.76,2.6.55.89,1.4,1.91,2.53,3.07l11.56,11.44c3.07,3.04,5.19,5.93,6.35,8.66,1.16,2.73,1.57,5.31,1.22,7.76-.35,2.45-1.29,4.73-2.82,6.86-1.79,2.5-4.17,4.35-7.14,5.55-2.97,1.2-6.46,1.38-10.47.53-4.02-.85-8.48-3.03-13.38-6.55Z"/>
        <path class="cls-1" d="M167.43,409.14c-6.05-1.62-11.01-4.2-14.86-7.74-3.86-3.54-6.41-7.76-7.66-12.67-1.25-4.9-1.1-10.25.45-16.02,1.55-5.78,4.09-10.47,7.63-14.1,3.54-3.62,7.86-6,12.97-7.14,5.11-1.14,10.69-.89,16.74.73,6.27,1.68,11.32,4.29,15.15,7.82,3.83,3.53,6.38,7.75,7.66,12.67,1.28,4.91,1.14,10.26-.41,16.03-1.55,5.78-4.1,10.47-7.67,14.09-3.56,3.62-7.89,5.99-12.97,7.14-5.08,1.14-10.76.87-17.03-.81ZM170.61,397.26c4.07,1.09,7.47,1.43,10.21,1.01,2.73-.42,4.99-1.68,6.77-3.8,1.77-2.12,3.21-5.21,4.3-9.28,1.11-4.13,1.42-7.54.93-10.23-.49-2.7-1.81-4.91-3.97-6.64-2.16-1.73-5.28-3.14-9.35-4.23-4.02-1.08-7.38-1.4-10.09-.98-2.71.42-4.93,1.68-6.67,3.78-1.74,2.1-3.17,5.21-4.27,9.34-1.09,4.07-1.41,7.46-.96,10.18.45,2.71,1.74,4.93,3.88,6.65,2.13,1.72,5.21,3.12,9.22,4.2ZM186.72,425.9l-16.09-4.31-10.81-25.01,14.19,3.8,12.71,25.52Z"/>
        <path class="cls-1" d="M253.55,415.52c-6.17.64-11.43.19-15.77-1.37-4.34-1.55-7.75-4.06-10.23-7.52-2.48-3.46-3.98-7.75-4.51-12.84l-3.45-33.14,12.75-1.33,3.35,32.21c.34,3.23,1.07,5.77,2.21,7.63,1.14,1.86,2.87,3.08,5.19,3.67,2.32.59,5.38.69,9.18.29,3.91-.41,6.92-1.13,9.05-2.19,2.12-1.05,3.54-2.6,4.24-4.65.7-2.05.89-4.69.55-7.92l-3.35-32.2,12.75-1.33,3.45,33.14c.53,5.1-.06,9.6-1.77,13.5-1.71,3.9-4.52,7.05-8.42,9.46-3.9,2.41-8.97,3.94-15.2,4.59Z"/>
        <path class="cls-1" d="M319.48,397.33l-11.5,5.66-25.27-51.36,11.5-5.66,25.27,51.36ZM331.26,340.59l-40.24,19.8-5.09-10.35,40.24-19.8,5.09,10.35ZM340.11,361.47l-39.09,19.23-5.05-10.27,39.09-19.24,5.05,10.27ZM351.44,381.6l-40.24,19.8-5.09-10.35,40.24-19.8,5.09,10.35Z"/>
        <path class="cls-1" d="M378.18,296.07l-38.94,39.35-8.2-8.11,38.94-39.34,8.2,8.11ZM395.7,343.34l-9.01,9.11-40.68-40.26,9.01-9.11,40.68,40.26Z"/>
        <path class="cls-1" d="M406.54,239.23l-23.61,50.07-10.43-4.92,23.61-50.07,10.43,4.92ZM438.81,277.96l-5.47,11.59-51.77-24.42,5.47-11.59,51.77,24.41Z"/>
        <path class="cls-1" d="M455.56,221.05l-1.36,12.74-56.92-6.06,1.36-12.74,56.91,6.06ZM413.88,180.79l-4.75,44.6-11.47-1.22,4.75-44.6,11.47,1.22ZM436.26,184.46l-4.61,43.32-11.38-1.21,4.61-43.32,11.38,1.21ZM459.33,185.63l-4.75,44.6-11.47-1.22,4.75-44.6,11.47,1.22Z"/>
      </g>
    </g>
  </g>
</svg>