<?xml version="1.0" encoding="UTF-8"?>
<svg id="Layer_2" data-name="Layer 2" xmlns="http://www.w3.org/2000/svg" viewBox="0 0 1066.47 193.53">
  <defs>
    <style>
      .cls-1 {
        stroke-width: 0px;
      }
    </style>
  </defs>
  <g id="Layer_1-2" data-name="Layer 1">
    <g>
      <g>
        <path class="cls-1" d="M274.1,148.86c-9.31,0-17.38-1.8-24.19-5.4-6.82-3.6-12.07-8.68-15.75-15.24-3.68-6.56-5.52-14.29-5.52-23.18s1.84-16.62,5.52-23.18c3.68-6.56,8.93-11.64,15.75-15.24,6.81-3.6,14.88-5.4,24.19-5.4s16.57,1.4,23.05,4.19c6.48,2.79,11.49,6.77,15.05,11.94,3.56,5.17,5.33,11.39,5.33,18.67v1.9h-21.21v-1.9c0-5.59-1.71-9.74-5.14-12.45-3.43-2.71-9-4.06-16.7-4.06-6.18,0-11.16.83-14.92,2.48-3.77,1.65-6.5,4.32-8.19,8-1.69,3.68-2.54,8.7-2.54,15.05s.85,11.26,2.54,14.99c1.69,3.73,4.42,6.41,8.19,8.06,3.77,1.65,8.74,2.48,14.92,2.48,7.7,0,13.27-1.35,16.7-4.06,3.43-2.71,5.14-6.86,5.14-12.45v-1.91h21.21v1.91c0,7.2-1.78,13.4-5.33,18.61s-8.57,9.21-15.05,12c-6.48,2.79-14.16,4.19-23.05,4.19Z"/>
        <path class="cls-1" d="M346.49,147.59h-21.34l37.21-85.09h27.18l37.47,85.09h-21.84l-23.37-54.48-5.21-13.21h-1.4l-5.21,13.21-23.5,54.48ZM405.42,128.79h-59.95v-17.15h59.95v17.15Z"/>
        <path class="cls-1" d="M475.14,148.86c-8.55,0-15.83-1.12-21.84-3.37-6.01-2.24-10.58-5.59-13.72-10.03-3.13-4.45-4.7-9.97-4.7-16.57v-.76h19.05v2.29c0,2.63.57,4.74,1.71,6.35,1.14,1.61,3.24,2.79,6.29,3.56,3.05.76,7.45,1.14,13.21,1.14,5.08,0,8.97-.27,11.68-.83,2.71-.55,4.57-1.42,5.59-2.6,1.02-1.18,1.52-2.71,1.52-4.57,0-2.62-.87-4.53-2.6-5.71-1.74-1.19-4.76-2.16-9.08-2.92l-23.88-3.43c-5.08-.85-9.42-2.24-13.02-4.19-3.6-1.95-6.37-4.55-8.32-7.81-1.95-3.26-2.92-7.22-2.92-11.88,0-3.22.7-6.39,2.1-9.53,1.4-3.13,3.62-5.95,6.67-8.45,3.05-2.5,7.05-4.51,12-6.03,4.95-1.52,11.03-2.29,18.23-2.29,8.72,0,15.9,1.25,21.53,3.75,5.63,2.5,9.84,6.01,12.64,10.54,2.79,4.53,4.19,9.76,4.19,15.69v.76h-19.18v-1.78c0-2.71-.57-4.91-1.71-6.6-1.14-1.69-3.24-2.94-6.29-3.75-3.05-.8-7.41-1.21-13.08-1.21-4.57,0-8.15.3-10.73.89-2.58.59-4.43,1.48-5.52,2.67-1.1,1.19-1.65,2.71-1.65,4.57,0,1.61.34,2.94,1.02,4,.68,1.06,1.73,1.89,3.17,2.48,1.44.59,3.34,1.1,5.72,1.52l23.88,3.81c6.35,1.02,11.41,2.67,15.18,4.95,3.77,2.29,6.5,5.06,8.19,8.32,1.69,3.26,2.54,6.84,2.54,10.73,0,4.57-1.27,8.87-3.81,12.89-2.54,4.02-6.6,7.26-12.19,9.72-5.59,2.45-12.87,3.68-21.84,3.68Z"/>
        <path class="cls-1" d="M569.63,148.86c-9.31,0-17.42-1.8-24.32-5.4-6.9-3.6-12.19-8.68-15.88-15.24-3.68-6.56-5.52-14.29-5.52-23.18s1.84-16.62,5.52-23.18c3.68-6.56,8.97-11.64,15.88-15.24,6.9-3.6,15.01-5.4,24.32-5.4s17.91,1.8,24.77,5.4c6.86,3.6,12.15,8.68,15.88,15.24,3.72,6.56,5.59,14.29,5.59,23.18s-1.86,16.62-5.59,23.18c-3.73,6.56-9.02,11.64-15.88,15.24-6.86,3.6-15.11,5.4-24.77,5.4ZM569.63,130.57c6.26,0,11.28-.83,15.05-2.48,3.77-1.65,6.52-4.34,8.26-8.06,1.73-3.72,2.6-8.72,2.6-14.99s-.87-11.37-2.6-15.05c-1.74-3.68-4.49-6.35-8.26-8-3.77-1.65-8.79-2.48-15.05-2.48s-11.13.83-14.86,2.48c-3.73,1.65-6.44,4.32-8.13,8-1.69,3.68-2.54,8.7-2.54,15.05s.85,11.26,2.54,14.99c1.69,3.73,4.4,6.41,8.13,8.06,3.72,1.65,8.68,2.48,14.86,2.48ZM603.8,165.5h-24.77l-25.15-31.75h21.84l28.07,31.75Z"/>
        <path class="cls-1" d="M670.35,148.86c-9.23,0-16.94-1.48-23.11-4.45-6.18-2.96-10.84-7.2-13.97-12.7-3.13-5.5-4.7-12.07-4.7-19.69v-49.53h19.05v48.13c0,4.83.7,8.7,2.1,11.62,1.4,2.92,3.77,5,7.11,6.22,3.34,1.23,7.85,1.84,13.53,1.84s10.41-.61,13.72-1.84c3.3-1.23,5.63-3.3,6.99-6.22,1.35-2.92,2.03-6.79,2.03-11.62v-48.13h19.05v49.53c0,7.62-1.57,14.18-4.7,19.69-3.13,5.5-7.77,9.74-13.91,12.7-6.14,2.96-13.87,4.45-23.18,4.45Z"/>
        <path class="cls-1" d="M745.91,147.59h-19.05V62.5h19.05v85.09ZM798.87,79.64h-66.68v-17.15h66.68v17.15ZM796.97,113.3h-64.77v-17.02h64.77v17.02ZM798.87,147.59h-66.68v-17.15h66.68v17.15Z"/>
        <path class="cls-1" d="M891.58,79.64h-82.3v-17.15h82.3v17.15ZM859.96,147.59h-19.05V62.5h19.05v85.09Z"/>
        <path class="cls-1" d="M982.52,79.64h-82.3v-17.15h82.3v17.15ZM950.89,147.59h-19.05V62.5h19.05v85.09Z"/>
        <path class="cls-1" d="M1013.51,147.59h-19.05V62.5h19.05v85.09ZM1066.47,79.64h-66.68v-17.15h66.68v17.15ZM1064.56,113.3h-64.77v-17.02h64.77v17.02ZM1066.47,147.59h-66.68v-17.15h66.68v17.15Z"/>
      </g>
      <path class="cls-1" d="M221.29,48.44c-.12-.23-.41-.56-.58-.53-.87.11-1.39-.55-2.09-.81-.65-.24-1.35-.47-1.87-.89-.62-.51-1.2-.52-1.94-.36-.25.05-.51.08-.77.07-4.4-.23-8.44,1.53-12.59,2.59-.98.25-1.87.74-2.82,1.09-.2.07-.43,0-.64.05-.52.11-1.04.23-1.55.37-.51.14-1.01.34-1.53.49-.63.18-1.29.31-1.91.53-.66.24-1.24.8-2.03.34-.13-.07-.4.07-.59.15-1.57.63-3.12,1.31-4.7,1.91-1.45.55-2.83,1.2-4.38,1.56-2.75.64-5.44,1.59-8.13,2.47-1.23.4-2.4.99-3.62,1.44-2.69,1-5.39,1.98-8.1,2.92-2.51.88-5.06,1.65-7.55,2.57-.9.33-2.33-6.7-2.75-7.48-.12-.21-.2-.46-.35-.64-1.05-1.21-.61-3.12-1.98-4.17-.08-.06-.07-.23-.11-.34-.12-.37-.23-.74-.36-1.11-.5-1.47-1.69-2.7-1.53-4.41.02-.22-.21-.48-.37-.69-.56-.74-1.11-1.44-1.22-2.43-.05-.45-.56-1.25-.68-1.22-.7.19-.76-.36-1-.69-.78-1.07-1.55-2.16-2.33-3.23-1.22-1.65-2.46-3.29-3.68-4.94-.17-.24-.25-.55-.42-.78-.47-.63-.97-1.23-1.45-1.84.06-.05.12-.09.18-.14.26.19.52.38.78.57l.15-.16c-.19-.22-.4-.41-.56-.65-.95-1.44-2.63-2.08-3.68-3.47-1.18-1.56-2.83-2.76-4.04-4.29-1.66-2.09-3.7-3.66-5.91-5.06-2.9-1.84-5.88-3.57-8.73-5.49-1.82-1.23-3.73-2.11-5.85-2.64-1.14-.29-2.46-.52-3.27-1.25-.8-.73-1.72-.93-2.56-1.21-1.24-.41-2.62-.45-3.95-.55-1.81-.13-3.63-.13-5.45-.27-1.43-.1-2.86-.39-4.29-.46-1.93-.09-3.87.01-5.8-.06-.54-.02-1.06-.21-1.58-.37-.95-.3-1.91.39-2.84.43-2.47.13-4.97-.17-7.42.41-.24.06-.49.05-.74.03-.88-2.31-3.29-6.96-8.17-5.5-4.99,1.49-4.15,6.32-3.53,8.39-1.45.38-2.83.97-4.19,1.65-1.07.54-2.16,1.03-3.25,1.53-1.6.73-3.23,1.39-4.81,2.16-2.36,1.15-4.81,2.15-6.73,4.06-.78.77-1.74,1.38-2.67,1.98-.86.55-1.8.98-2.7,1.48-.15.08-.28.24-.38.39-.51.82-1.22,1.23-2.16,1.07-.26.44-.43.93-.76,1.23-.56.5-1.29.82-1.84,1.33-1.33,1.26-2.96,2.29-3.51,4.21-.02.08-.08.21-.14.22-1.03.24-1.36,1.24-1.97,1.91-1.46,1.61-2.87,3.27-4.27,4.92-.43.51-.77,1.08-1.18,1.61-.98,1.26-2.06,2.46-2.95,3.79-1.93,2.88-3.51,5.94-4.96,9.1-.8,1.74-1.89,3.35-2.71,5.09-.8,1.69-1.41,3.46-2.11,5.19-1.31,3.23-1.76,6.65-2.23,10.08-.41,3.01-1.05,5.98-1.64,8.96-.32,1.63-1.03,3.24-1.05,4.86-.02,1.93-.42,3.84,0,5.85.54,2.56.45,5.25.67,7.88.19,2.23.31,4.48.67,6.69.28,1.73.83,3.42,1.37,5.09.51,1.61-.06,3.58,1.61,4.79.02.01.01.06.02.09.59,1.71,1.48,2.07,3.15,1.44.58-.22,1.28-.19,1.92-.16.7.03,1.39.24,2.09.28.45.03.9-.14,1.35-.16,1.72-.05,3.45.04,5.15-.12,2.28-.21,4.55-.6,6.82-.93.71-.1,1.13.1,1.1.9-.01.27,0,.55-.02.82-.26,2.38-.56,4.76-.78,7.15-.22,2.47-.29,4.96-.55,7.42-.32,3.01-.77,6.01-1.18,9.02-.22,1.61-.58,3.21-.71,4.83-.13,1.59,0,3.21-.09,4.81-.08,1.29-.38,2.57-.51,3.86-.31,3.01-.63,6.02-.86,9.03-.17,2.23-.24,4.47-.3,6.71-.03,1.03-.02,2.01-.4,3.03-.35.95-.44,2.06.06,3.1.51,1.07.9,2.16.76,3.41-.22,1.92.99,3,2.46,3.88.78.46,1.74.75,2.32,1.39,1.03,1.13,2.08,2.11,3.56,2.6,1.61.53,3.16,1.35,4.81,1.64,2.65.47,5.35.64,8.03.89,4.35.4,8.71.69,13.05,1.16,2.34.25,4.67.47,6.95,1.29,1.18.43,4.16.77,5.14-.61.2-.28.73-.47,1.08-.45.75.05,1.53.65,2.04.15.57-.57,2.34-.4,2.95-.93.43-.37,3.85-1.91,4.35-2.23.03-.02.04-.05.07-.08,1.97-1.56,7.22-10.69,6.9-11.74-.17-.55-.47-1.09-.84-1.53-.36-.43-.84-.81-1.35-1.06-1.13-.54-7.86-2.89-9.01-2.85-.69.03-1.39-.02-2.08-.08-1-.09-1.9-.93-3-.37-.17.09-.47-.07-.71-.1-.54-.07-1.08-.12-1.62-.18-1.83-.18-3.67-.36-5.5-.55-1.68-.18-3.37-.37-5.05-.56-1.77-.2-3.54-.41-5.31-.59-.6-.06-.73-.41-.72-.94.06-2.3.03-.62.09-2.92,0-.3,0-.63.13-.89.76-1.55,1.1-3.13.91-4.88-.16-1.48-.2-2.98-.13-4.47.1-2.31-.25-4.63.16-6.95.38-2.19.52-4.42.76-6.63.04-.42.07-.85.07-1.27,0-.79-.04-1.58-.08-2.36-.11-2.08-.36-4.17-.32-6.25.03-1.46.54-2.91.68-4.37.15-1.51.91-3.04-.03-4.56-.07-.11-.02-.3-.04-.45-.21-1.83-.4-3.67-.63-5.5-.09-.75-.44-1.52-.35-2.23.18-1.4.56-2.78.94-4.15.1-.37.44-.82.78-.96,1.17-.48,2.37-.92,3.6-1.24,1.8-.48,3.64-.81,5.45-1.27,1.37-.35,2.7-.9,4.09-1.19,2.33-.49,4.7-.82,7.04-1.28.72-.14.76-.61,3.18-1.38.69-.22,1.39-.43,2.09-.61,2.63-.66,5.28-1.25,7.9-1.97,2.09-.57,4.13-1.29,6.2-1.92.77-.23,1.56-.41,2.37-.62.07.24.15.41.16.58.14,1.63.25,3.27.42,4.9.3,2.83.64,5.65.99,8.47.28,2.3.65,4.58.9,6.88.24,2.23.3,4.48.55,6.71.39,3.54.85,7.07,1.29,10.61.32,2.57.65,5.14.98,7.72.05.39.2.76.23,1.15.13,1.75.22,3.5.34,5.25.08,1.18.37,2.36.27,3.52-.15,1.77.39,3.37.92,4.96.59,1.8,1.39,3.53,2.18,5.25.86,1.89,1.96,3.63,3.48,5.07.21.2.53.27.76.44.44.32.87.66,1.27,1.02.19.18.26.5.45.67,1.18,1.03,2.36,2.02,3.83,2.68,1.77.79,3.58,1.41,5.5,1.42,2.63.02,5.26-.16,7.88-.24.54-.02,1.13.21,1.6.06.71-.23,1.35-.74,2.1-.12.05.04.21-.07.32-.11.44-.15.87-.34,1.32-.46,1.02-.28,2.04-.54,3.07-.78.81-.19,1.64-.35,2.45-.53,2.06-.46,4.12-.93,6.18-1.39,1.18-.26,2.41-.37,3.52-.8,1.41-.56,2.87-1.01,4.36-1.34.82-.18,1.59-.31,2.42-.29.18,0,.41-.11.52-.25.62-.72,1.47-.74,2.31-.86.49-.07.96-.39,1.42-.62.31-.15.62-.33.91-.52.44-.29,3.15-.86,5.41-1.93,1.89-2.01,9.21-6.28,8.86-7.04.45-.47.86-.73,1.01-1.1.23-.56-.15-.95-.64-1.25-.36-.22-.63-.57-.98-.81-1.35-.97-3.39-8.85-5.15-8.66-.44.05-1.23-.05-1.33-.29-.54-1.35-1.65-1.27-2.8-1.55-2.33-.58-4.65-.52-6.96-.4-1.72.09-3.41.72-5.12,1.08-1.79.37-3.63.31-5.43.89-2.2.7-4.53.99-6.81,1.43-2.41.46-4.82.91-7.25,1.27-.32.05-1-.41-1.04-.7-.15-.27-.27-.52-.28-.77-.01-1.13-.31-2.25-.48-3.37-.04-.23-.08-.47-.13-.7-.16-.73-.37-1.45-.46-2.19-.13-1.02-.08-2.06-.25-3.07-.4-2.41-.9-4.8-1.33-7.2-.1-.54-.08-1.09-.17-1.63-.38-2.23-.75-4.46-1.2-6.67-.28-1.41-.66-2.81-1.04-4.21-.38-1.42-.9-2.81-1.21-4.25-.39-1.84-.59-3.72-.93-5.56-.35-1.87-.81-3.73-1.18-5.6-.1-.5.09-1.08-.09-1.53-.57-1.4-1.08-2.79-1.23-4.32-.25-2.47-1.33-4.8-1.2-7.34.02-.33.27-.61.6-.69,1.14-.25,2.28-.51,3.39-.86.89-.28.46-.17,1.2-.56,1.47-.78,3.18-1.15,4.78-1.71,2.5-.87,4.99-1.76,7.5-2.61,1.55-.52,3.1-1,4.67-1.46.9-.26,1.84-.35,2.73-.63,1.32-.42,2.61-.95,3.92-1.41.74-.26,1.49-.55,2.26-.67,3.84-.61,7.35-2.23,10.99-3.47.59-.2,1.22-.32,1.83-.47.03.08.06.16.09.24-.56.38,4.45-.7,6.36-1.28,2.14-.66,4.33-1.13,6.46-1.82,2.87-.94,5.7-2.03,8.55-3.06,1.05-.38,2.07-1.04,3.14-1.11,1.73-.11,3.02-1.14,4.53-1.69,2.22-.81,4.32-1.91,6.53-2.75,1.14-.43,2.44-.46,3.6-.85,2.35-.79,4.67-1.69,6.99-2.56.33-.12.7-.24.95-.47,1.68-1.54,3.91-2.37,5.54-3.95.52-.5,1.6-1.56,2.51-2.51,1.16-1.53.52-1.57,1.78-2.4.58-.38.53-1.49-.03-2.52ZM95.5,27.8c.73-1.22,1.49-1.87,2.22-3.09.54-.89,2.75-1.83,3.81-1.99.2-.03,1.9.53,2.07.42,1.14-.73,2.31-.51,3.03.67.67,1.09,1.3,2.2,1.86,3.35.18.36.18.89.07,1.29-.36,1.31-.72,2.62-1.25,3.87-.59,1.38-1.48,2.63-2.02,4.02-.62,1.62-1.75,2.23-3.37,2.37-.54.05-1.04.46-1.56.7-.04-.09-.08-.18-.11-.27-.38.1-.78.13-1.12.3-.64.31-.97.06-1.35-.45-1.26-1.66-4.31-3-4.24-4.92.07-1.84,1.06-4.75,1.96-6.26ZM45.35,41.71c.03-1.03.32-2.06.48-3.09.38-2.39,1.82-4.17,3.59-5.61.71-.58,1.87-.6,2.82-.91.23-.07.49-.2.64-.38.91-1.14,3.05-1.25,3.99-.09,1.11,1.37,2.33,2.71,3.09,4.27.59,1.21.83,2.72.21,4.13-.43.97-.75,2.03-1.35,2.88-.71,1-1.69,1.8-2.52,2.73-.7.79-1.46,1.48-2.41,1.97-.68.36-3.92-.48-4.12-.59-1.03-.57-2.01-1.23-3.05-1.79-1.47-.79-1.39-2.19-1.36-3.5ZM119.64,48.36c-.69,1.85-1.35,3.73-2.3,5.45-.71,1.28-1.75,2.41-2.79,3.46-1.81,1.83-3.7,3.6-5.63,5.31-1.23,1.09-2.54,2.14-3.95,2.97-1.63.95-3.41,1.63-5.12,2.45-.41.19-.76.49-1.16.7-1.07.54-2.17,1.03-3.24,1.58-1.32.67-2.61,1.38-3.93,2.04-.33.17-.76.15-1.09.32-1.03.53-2.05,1.07-3.28.83-1.38,1.17-3.07,1.03-4.71,1.18-.47.04-.97.14-1.4.33-2.48,1.16-5.05,1.86-7.81,1.78-.51-.01-1.02.15-1.53.15-2.11.02-4.23,0-6.34,0v-.17c-1.88-.04-3.77.02-5.64-.15-2.22-.21-4.45-.52-6.63-.97-2.77-.57-5.37-1.61-7.78-3.18-.89-.58-2.04-.75-3.03-1.19-2.64-1.18-4.46-3.09-5.11-5.98-.18-.83,1.02-1.86,1.87-1.63.17.04.38.09.53.03.67-.29,1.21-.04,1.81.26.35.17.84.23,1.22.14,1.55-.38,2.92-.16,4.36.6,2.02,1.06,4.14,1.94,6.28,2.73.86.32,1.92.08,2.83.31,1.67.42,3.29,1.03,4.94,1.49.79.22,1.64.38,2.45.35,1.23-.04,2.45-.23,3.67-.41,1.16-.17,2.3-.44,3.45-.62.9-.14,1.81-.19,2.7-.36.76-.14,1.5-.41,2.25-.61.78-.2,1.56-.39,2.35-.55.2-.04.47.14.62.06,1.63-.86,3.62-.48,5.16-1.29,1.26-.67,2.58-.71,3.84-1.11.14-.05.36-.13.44-.07,1.33,1.03,1.97-.41,2.8-.87,1.12-.62,2.12-1.4,3.5-1.27.79.07,1.28-.21,1.71-1,.38-.69,1.18-1.19,1.87-1.66.65-.44,1.4-.72,2.11-1.07,1.29-.64,2.52-1.33,3.04-2.82.08-.25.41-.56.65-.58,1-.06,1.53-.79,2.2-1.35.5-.43,1.07-.78,1.59-1.19.16-.13.34-.33.38-.52.26-1.27.92-2.19,2.16-2.67.17-.07.34-.34.38-.54.13-.71.55-1.04,1.22-1.3.54-.21,1.03-.66,1.44-1.1.36-.38.65-.65,1.22-.78.9-.2,1.75-.67,2.59-1.07,1.32-.64,2.03-.32,2.38,1.11.08.34.3.65.36.99.09.49.25,1.06.09,1.48Z"/>
    </g>
  </g>
</svg>