<?xml version="1.0" encoding="utf-8"?>
<!-- Generator: Adobe Illustrator 28.2.0, SVG Export Plug-In . SVG Version: 6.00 Build 0)  -->
<svg version="1.1" id="Calque_1" xmlns="http://www.w3.org/2000/svg" xmlns:xlink="http://www.w3.org/1999/xlink" x="0px" y="0px"
	 viewBox="0 0 256.1 74.7" style="enable-background:new 0 0 256.1 74.7;" xml:space="preserve">
<style type="text/css">
	.st0{fill:#1D1D1B;}
	.st1{fill:#FFFFFF;}
</style>
<rect class="st0" width="256.1" height="74.7"/>
<path class="st1" d="M59.3,32.2v4.7L57,39.2h-5.2V43h1.7v1.8h-5.1V43H50V31.7h-1.6v-1.8H57L59.3,32.2z M51.8,31.7v5.8h4.4l1.2-1.2
	V33l-1.2-1.2L51.8,31.7L51.8,31.7z"/>
<path class="st1" d="M69.7,43h1.7v1.8h-5V43h1.3L67,40.3h-4.5L61.8,43H63v1.8h-4.6V43H60l3.1-11.3h-1.7v-1.8h4.8L69.7,43z
	 M62.8,39.1h3.9l-2-7.3L62.8,39.1z"/>
<path class="st1" d="M83.4,32v4.2l-2,2h-1.1l2.4,4.7H84v1.8h-4.6V43h1.3l-2.4-4.7h-2.2V43h1.3v1.8h-4.7V43h1.6V31.7h-1.6v-1.9h8.6
	L83.4,32z M76.1,31.7v5.1h4.4l1.1-1.1v-3l-1.1-1.1L76.1,31.7z"/>
<path class="st1" d="M90.8,31.7h-1.6V43h1.6v1.8h-5V43h1.6V31.7h-1.6v-1.8h5V31.7z"/>
<path class="st1" d="M102.4,32v2.1h-1.8v-1.3l-1.1-1.1H96l-1.1,1.1v2.6l0.8,0.8h5.1l1.7,1.7v4.7l-2.2,2.2h-5L93,42.6v-2.7h1.8v2
	L96,43h3.5l1.1-1.1v-3.1L99.9,38h-5.1L93,36.2V32l2.1-2.1h5.1L102.4,32z"/>
<path class="st1" d="M124.1,31.7h-1.6v13.1h-1.8l-6.3-12.4V43h1.3v1.8h-4.5V43h1.6V31.7h-1.6v-1.9h4l5.6,11.4v-9.6h-1.3v-1.9h4.5v2
	H124.1z"/>
<path class="st1" d="M135.3,42.4l-2.4,2.4H128l-2.4-2.4V32.2l2.3-2.3h5.1l2.3,2.3L135.3,42.4z M128.6,31.7l-1.2,1.2v8.8l1.3,1.3h3.5
	l1.3-1.3v-8.8l-1.2-1.2H128.6z"/>
<path class="st1" d="M147.9,32v4.2l-2,2h-1.1l2.4,4.7h1.4v1.8H144V43h1.3l-2.4-4.7h-2.2V43h1.3v1.8h-4.7V43h1.6V31.7h-1.6v-1.9h8.6
	L147.9,32z M140.6,31.7v5.1h4.4l1.1-1.1v-3l-1.1-1.1L140.6,31.7z"/>
<path class="st1" d="M160.9,41.8l-3,3h-8V43h1.6V31.7h-1.6v-1.8h8.1l2.9,2.9V41.8z M153.3,31.7V43h4l1.8-1.8v-7.8l-1.7-1.7H153.3z"
	/>
<path class="st1" d="M169.9,37.8h-5.2v-1.3h5.2V37.8z"/>
<path class="st1" d="M184.2,33.7h-1.6v-2H177v4.5h3.8v-1h1.3v3.4h-1.3v-1H177V43h5.6v-2h1.6v3.8h-10.5V43h1.6V31.7h-1.6v-1.9h10.5
	L184.2,33.7L184.2,33.7z"/>
<path class="st1" d="M195.4,32v2.1h-1.8v-1.3l-1.1-1.1H189l-1.1,1.1v2.6l0.8,0.8h5.1l1.7,1.7v4.7l-2.2,2.2h-5l-2.2-2.2v-2.7h1.8v2
	L189,43h3.5l1.1-1.1v-3.1l-0.8-0.8h-5.1l-1.7-1.7V32l2.1-2.1h5.1L195.4,32z"/>
<path class="st1" d="M207.7,34.3h-1.6v-2.6h-2.9V43h1.8v1.8h-5.4V43h1.8V31.6h-2.9v2.6h-1.6v-4.4h10.8L207.7,34.3L207.7,34.3z"/>
<path class="st1" d="M124.1,31.7h-1.6v13.1h-1.8l-6.3-12.4V43h1.3v1.8h-4.5V43h1.6V31.7h-1.6v-1.9h4l5.6,11.4v-9.6h-1.3v-1.9h4.5v2
	H124.1z"/>
<path class="st1" d="M135.3,42.4l-2.4,2.4H128l-2.4-2.4V32.2l2.3-2.3h5.1l2.3,2.3L135.3,42.4z M128.6,31.7l-1.2,1.2v8.8l1.3,1.3h3.5
	l1.3-1.3v-8.8l-1.2-1.2H128.6z"/>
<path class="st1" d="M147.9,32v4.2l-2,2h-1.1l2.4,4.7h1.4v1.8H144V43h1.3l-2.4-4.7h-2.2V43h1.3v1.8h-4.7V43h1.6V31.7h-1.6v-1.9h8.6
	L147.9,32z M140.6,31.7v5.1h4.4l1.1-1.1v-3l-1.1-1.1L140.6,31.7z"/>
<path class="st1" d="M160.9,41.8l-3,3h-8V43h1.6V31.7h-1.6v-1.8h8.1l2.9,2.9V41.8z M153.3,31.7V43h4l1.8-1.8v-7.8l-1.7-1.7H153.3z"
	/>
<path class="st1" d="M169.9,37.8h-5.2v-1.3h5.2V37.8z"/>
<path class="st1" d="M184.2,33.7h-1.6v-2H177v4.5h3.8v-1h1.3v3.4h-1.3v-1H177V43h5.6v-2h1.6v3.8h-10.5V43h1.6V31.7h-1.6v-1.9h10.5
	L184.2,33.7L184.2,33.7z"/>
<path class="st1" d="M195.4,32v2.1h-1.8v-1.3l-1.1-1.1H189l-1.1,1.1v2.6l0.8,0.8h5.1l1.7,1.7v4.7l-2.2,2.2h-5l-2.2-2.2v-2.7h1.8v2
	L189,43h3.5l1.1-1.1v-3.1l-0.8-0.8h-5.1l-1.7-1.7V32l2.1-2.1h5.1L195.4,32z"/>
<path class="st1" d="M207.7,34.3h-1.6v-2.6h-2.9V43h1.8v1.8h-5.4V43h1.8V31.6h-2.9v2.6h-1.6v-4.4h10.8L207.7,34.3L207.7,34.3z"/>
</svg>
