<svg id="Calque_1" data-name="Calque 1" xmlns="http://www.w3.org/2000/svg" viewBox="0 0 256.12 74.7"><defs><style>.cls-1{fill:#fff;stroke:#1d1d1b;stroke-miterlimit:10;}.cls-2{fill:#1d1d1b;}</style></defs><rect class="cls-1" x="0.5" y="0.5" width="255.12" height="73.7"/><path class="cls-2" d="M234.25,413.08v4.68L232,420.07h-5.19v3.82h1.71v1.84h-5.13v-1.84h1.56V412.61h-1.56v-1.84H232Zm-7.48-.47v5.77h4.42l1.22-1.22v-3.33l-1.22-1.22Z" transform="translate(-174.96 -380.9)"/><path class="cls-2" d="M244.7,423.89h1.69v1.84h-5v-1.84h1.32l-.74-2.71H237.5l-.75,2.71H238v1.84h-4.57v-1.84h1.64l3.08-11.28h-1.69v-1.84h4.79ZM237.75,420h3.93l-2-7.27Z" transform="translate(-174.96 -380.9)"/><path class="cls-2" d="M258.33,412.89v4.23l-2,2h-1.11l2.4,4.74H259v1.84h-4.59v-1.84h1.28l-2.39-4.74h-2.18v4.74h1.3v1.84h-4.7v-1.84h1.56V412.63h-1.56v-1.86h8.57Zm-7.26-.26v5.11h4.36l1.07-1.07v-3l-1.07-1.07Z" transform="translate(-174.96 -380.9)"/><path class="cls-2" d="M265.75,412.61h-1.56v11.28h1.56v1.84h-5v-1.84h1.56V412.61h-1.56v-1.84h5Z" transform="translate(-174.96 -380.9)"/><path class="cls-2" d="M277.36,412.89V415h-1.84v-1.3l-1.09-1.09h-3.49l-1.09,1.09v2.65l.82.77h5.12l1.71,1.67v4.72l-2.22,2.22h-5L268,423.51v-2.74h1.84v2l1.16,1.15h3.5l1.14-1.15v-3.1l-.77-.79h-5.13L268,417.14v-4.25l2.12-2.12h5.13Z" transform="translate(-174.96 -380.9)"/><path class="cls-2" d="M299.05,412.63h-1.58v13.1h-1.82l-6.26-12.37v10.53h1.34v1.84H286.2v-1.84h1.56V412.63H286.2v-1.86h4l5.64,11.42v-9.56H294.5v-1.86h4.55Z" transform="translate(-174.96 -380.9)"/><path class="cls-2" d="M310.23,423.32l-2.42,2.41h-4.94l-2.41-2.41V413.08l2.31-2.31h5.15l2.31,2.31Zm-6.71-10.71-1.22,1.22v8.76l1.3,1.3h3.48l1.31-1.3v-8.76l-1.22-1.22Z" transform="translate(-174.96 -380.9)"/><path class="cls-2" d="M322.82,412.89v4.23l-2,2h-1.12l2.4,4.74h1.37v1.84h-4.6v-1.84h1.28l-2.39-4.74h-2.18v4.74h1.3v1.84h-4.7v-1.84h1.56V412.63h-1.56v-1.86h8.57Zm-7.27-.26v5.11h4.36l1.07-1.07v-3l-1.07-1.07Z" transform="translate(-174.96 -380.9)"/><path class="cls-2" d="M335.85,422.72l-3,3h-8v-1.84h1.56V412.61h-1.56v-1.84H333l2.88,2.89Zm-7.61-10.11v11.28h4L334,422.1v-7.76l-1.71-1.73Z" transform="translate(-174.96 -380.9)"/><path class="cls-2" d="M344.86,418.7h-5.17v-1.28h5.17Z" transform="translate(-174.96 -380.9)"/><path class="cls-2" d="M359.14,414.64h-1.56v-2H352v4.55h3.78v-1h1.32v3.4h-1.32v-1H352v5.32h5.57v-2h1.56v3.84H348.63v-1.84h1.56V412.63h-1.56v-1.86h10.51Z" transform="translate(-174.96 -380.9)"/><path class="cls-2" d="M370.32,412.89V415h-1.84v-1.3l-1.09-1.09h-3.48l-1.09,1.09v2.65l.81.77h5.13l1.71,1.67v4.72l-2.22,2.22H363.2L361,423.51v-2.74h1.84v2l1.15,1.15h3.51l1.13-1.15v-3.1l-.77-.79h-5.13L361,417.14v-4.25l2.12-2.12h5.13Z" transform="translate(-174.96 -380.9)"/><path class="cls-2" d="M382.7,415.15h-1.59v-2.63h-2.92v11.37H380v1.84h-5.39v-1.84h1.78V412.52h-2.93v2.63h-1.58v-4.38H382.7Z" transform="translate(-174.96 -380.9)"/><path class="cls-2" d="M299.05,412.63h-1.58v13.1h-1.82l-6.26-12.37v10.53h1.34v1.84H286.2v-1.84h1.56V412.63H286.2v-1.86h4l5.64,11.42v-9.56H294.5v-1.86h4.55Z" transform="translate(-174.96 -380.9)"/><path class="cls-2" d="M310.23,423.32l-2.42,2.41h-4.94l-2.41-2.41V413.08l2.31-2.31h5.15l2.31,2.31Zm-6.71-10.71-1.22,1.22v8.76l1.3,1.3h3.48l1.31-1.3v-8.76l-1.22-1.22Z" transform="translate(-174.96 -380.9)"/><path class="cls-2" d="M322.82,412.89v4.23l-2,2h-1.12l2.4,4.74h1.37v1.84h-4.6v-1.84h1.28l-2.39-4.74h-2.18v4.74h1.3v1.84h-4.7v-1.84h1.56V412.63h-1.56v-1.86h8.57Zm-7.27-.26v5.11h4.36l1.07-1.07v-3l-1.07-1.07Z" transform="translate(-174.96 -380.9)"/><path class="cls-2" d="M335.85,422.72l-3,3h-8v-1.84h1.56V412.61h-1.56v-1.84H333l2.88,2.89Zm-7.61-10.11v11.28h4L334,422.1v-7.76l-1.71-1.73Z" transform="translate(-174.96 -380.9)"/><path class="cls-2" d="M344.86,418.7h-5.17v-1.28h5.17Z" transform="translate(-174.96 -380.9)"/><path class="cls-2" d="M359.14,414.64h-1.56v-2H352v4.55h3.78v-1h1.32v3.4h-1.32v-1H352v5.32h5.57v-2h1.56v3.84H348.63v-1.84h1.56V412.63h-1.56v-1.86h10.51Z" transform="translate(-174.96 -380.9)"/><path class="cls-2" d="M370.32,412.89V415h-1.84v-1.3l-1.09-1.09h-3.48l-1.09,1.09v2.65l.81.77h5.13l1.71,1.67v4.72l-2.22,2.22H363.2L361,423.51v-2.74h1.84v2l1.15,1.15h3.51l1.13-1.15v-3.1l-.77-.79h-5.13L361,417.14v-4.25l2.12-2.12h5.13Z" transform="translate(-174.96 -380.9)"/><path class="cls-2" d="M382.7,415.15h-1.59v-2.63h-2.92v11.37H380v1.84h-5.39v-1.84h1.78V412.52h-2.93v2.63h-1.58v-4.38H382.7Z" transform="translate(-174.96 -380.9)"/></svg>