<svg xmlns="http://www.w3.org/2000/svg" xml:space="preserve">
<path d="M424.85 384.284H169.732v73.701H424.85Z" style="fill:#fff;fill-opacity:1;fill-rule:nonzero;stroke:#231f20;stroke-width:1;stroke-linecap:butt;stroke-linejoin:miter;stroke-miterlimit:10;stroke-dasharray:none;stroke-opacity:1" transform="matrix(1.33333 0 0 -1.33333 0 1122.52)"/><path d="M0 0v-5.771h4.424l1.219 1.218v3.335L4.424 0Zm7.48-.47v-4.681L5.194-7.459H0v-3.826h1.71v-1.838h-5.13v1.838h1.56V0h-1.56v1.838h8.614z" style="fill:#231f20;fill-opacity:1;fill-rule:nonzero;stroke:none" transform="matrix(1.33333 0 0 -1.33333 294.715 553.483)"/><path d="M0 0h3.932L1.966 7.267Zm6.946-3.868h1.689v-1.839H3.676v1.839h1.325l-.748 2.714h-4.51l-.748-2.714H.277v-1.839h-4.573v1.839h1.645L.427 7.417h-1.689v1.837h4.789z" style="fill:#231f20;fill-opacity:1;fill-rule:nonzero;stroke:none" transform="matrix(1.33333 0 0 -1.33333 309.363 563.372)"/><path d="M0 0v-5.108h4.36L5.429-4.04v2.972L4.36 0Zm7.267-.256v-4.232l-2.03-2.031H4.125l2.394-4.744h1.368v-1.838H3.292v1.838h1.282L2.18-6.519H0v-4.744h1.304v-1.838h-4.702v1.838h1.56V0h-1.56v1.859h8.57z" style="fill:#231f20;fill-opacity:1;fill-rule:nonzero;stroke:none" transform="matrix(1.33333 0 0 -1.33333 327.117 553.513)"/><path d="M0 0h-1.56v-11.285H0v-1.838h-4.98v1.838h1.56V0h-1.56v1.838H0Z" style="fill:#231f20;fill-opacity:1;fill-rule:nonzero;stroke:none" transform="matrix(1.33333 0 0 -1.33333 346.693 553.483)"/><path d="M0 0v-2.116h-1.838v1.304L-2.929.278h-3.483l-1.09-1.09v-2.651l.812-.769h5.129l1.71-1.667v-4.724l-2.222-2.222h-5.044l-2.224 2.222v2.736h1.839v-1.966l1.154-1.154h3.505l1.133 1.154v3.099l-.769.791h-5.13l-1.732 1.71V0l2.117 2.116h5.129z" style="fill:#231f20;fill-opacity:1;fill-rule:nonzero;stroke:none" transform="matrix(1.33333 0 0 -1.33333 362.168 553.854)"/><path d="M0 0h-1.581v-13.101h-1.817L-9.661-.727v-10.536h1.347v-1.838h-4.531v1.838h1.56V0h-1.56v1.859h3.997l5.642-11.413V0h-1.347v1.859H0z" style="fill:#231f20;fill-opacity:1;fill-rule:nonzero;stroke:none" transform="matrix(1.33333 0 0 -1.33333 391.092 553.513)"/><path d="m0 0-1.218-1.218v-8.764l1.304-1.303h3.483l1.304 1.303v8.764L3.655 0Zm6.711-10.708-2.415-2.415H-.641l-2.416 2.415V-.47l2.309 2.308h5.151L6.711-.47Z" style="fill:#231f20;fill-opacity:1;fill-rule:nonzero;stroke:none" transform="matrix(1.33333 0 0 -1.33333 397.048 553.483)"/><path d="M0 0v-5.108h4.36L5.429-4.04v2.972L4.36 0Zm7.267-.256v-4.232l-2.03-2.031H4.125l2.394-4.744h1.368v-1.838H3.292v1.838h1.282L2.18-6.519H0v-4.744h1.304v-1.838h-4.702v1.838h1.56V0h-1.56v1.859h8.57z" style="fill:#231f20;fill-opacity:1;fill-rule:nonzero;stroke:none" transform="matrix(1.33333 0 0 -1.33333 413.092 553.513)"/><path d="M0 0v-11.285h3.976L5.771-9.49v7.759L4.061 0Zm7.609-10.11-2.992-3.013H-3.42v1.838h1.561V0H-3.42v1.838h8.144l2.885-2.886z" style="fill:#231f20;fill-opacity:1;fill-rule:nonzero;stroke:none" transform="matrix(1.33333 0 0 -1.33333 430.019 553.483)"/><path d="M339.128 420.686h-5.172v1.282h5.172z" style="fill:#231f20;fill-opacity:1;fill-rule:nonzero;stroke:none" transform="matrix(1.33333 0 0 -1.33333 0 1122.52)"/><path d="M0 0h-1.56v2.009h-5.557v-4.553h3.783v1.005h1.325v-3.398h-1.325v1.004h-3.783v-5.321h5.578v2.008h1.56v-3.847h-10.537v1.839h1.56V2.009h-1.56v1.859H0Z" style="fill:#231f20;fill-opacity:1;fill-rule:nonzero;stroke:none" transform="matrix(1.33333 0 0 -1.33333 471.218 556.19)"/><path d="M0 0v-2.116h-1.838v1.304L-2.929.278h-3.483l-1.09-1.09v-2.651l.812-.769h5.129l1.71-1.667v-4.724l-2.222-2.222h-5.044l-2.224 2.222v2.736h1.839v-1.966l1.154-1.154h3.505l1.133 1.154v3.099l-.769.791h-5.13l-1.732 1.71V0l2.117 2.116h5.129z" style="fill:#231f20;fill-opacity:1;fill-rule:nonzero;stroke:none" transform="matrix(1.33333 0 0 -1.33333 486.121 553.854)"/><path d="M0 0h-1.581v2.629h-2.928v-11.37h1.773v-1.839h-5.386v1.839h1.774v11.37h-2.928V0h-1.581v4.381H0Z" style="fill:#231f20;fill-opacity:1;fill-rule:nonzero;stroke:none" transform="matrix(1.33333 0 0 -1.33333 502.62 556.875)"/><path d="M0 0h-1.581v-13.101h-1.817L-9.661-.727v-10.536h1.347v-1.838h-4.531v1.838h1.56V0h-1.56v1.859h3.997l5.642-11.413V0h-1.347v1.859H0z" style="fill:#231f20;fill-opacity:1;fill-rule:nonzero;stroke:none" transform="matrix(1.33333 0 0 -1.33333 391.092 553.513)"/><path d="m0 0-1.218-1.218v-8.764l1.304-1.303h3.483l1.304 1.303v8.764L3.655 0Zm6.711-10.708-2.415-2.415H-.641l-2.416 2.415V-.47l2.309 2.308h5.151L6.711-.47Z" style="fill:#231f20;fill-opacity:1;fill-rule:nonzero;stroke:none" transform="matrix(1.33333 0 0 -1.33333 397.048 553.483)"/><path d="M0 0v-5.108h4.36L5.429-4.04v2.972L4.36 0Zm7.267-.256v-4.232l-2.03-2.031H4.125l2.394-4.744h1.368v-1.838H3.292v1.838h1.282L2.18-6.519H0v-4.744h1.304v-1.838h-4.702v1.838h1.56V0h-1.56v1.859h8.57z" style="fill:#231f20;fill-opacity:1;fill-rule:nonzero;stroke:none" transform="matrix(1.33333 0 0 -1.33333 413.092 553.513)"/><path d="M0 0v-11.285h3.976L5.771-9.49v7.759L4.061 0Zm7.609-10.11-2.992-3.013H-3.42v1.838h1.561V0H-3.42v1.838h8.144l2.885-2.886z" style="fill:#231f20;fill-opacity:1;fill-rule:nonzero;stroke:none" transform="matrix(1.33333 0 0 -1.33333 430.019 553.483)"/><path d="M339.128 420.686h-5.172v1.282h5.172z" style="fill:#231f20;fill-opacity:1;fill-rule:nonzero;stroke:none" transform="matrix(1.33333 0 0 -1.33333 0 1122.52)"/><path d="M0 0h-1.56v2.009h-5.557v-4.553h3.783v1.005h1.325v-3.398h-1.325v1.004h-3.783v-5.321h5.578v2.008h1.56v-3.847h-10.537v1.839h1.56V2.009h-1.56v1.859H0Z" style="fill:#231f20;fill-opacity:1;fill-rule:nonzero;stroke:none" transform="matrix(1.33333 0 0 -1.33333 471.218 556.19)"/><path d="M0 0v-2.116h-1.838v1.304L-2.929.278h-3.483l-1.09-1.09v-2.651l.812-.769h5.129l1.71-1.667v-4.724l-2.222-2.222h-5.044l-2.224 2.222v2.736h1.839v-1.966l1.154-1.154h3.505l1.133 1.154v3.099l-.769.791h-5.13l-1.732 1.71V0l2.117 2.116h5.129z" style="fill:#231f20;fill-opacity:1;fill-rule:nonzero;stroke:none" transform="matrix(1.33333 0 0 -1.33333 486.121 553.854)"/><path d="M0 0h-1.581v2.629h-2.928v-11.37h1.773v-1.839h-5.386v1.839h1.774v11.37h-2.928V0h-1.581v4.381H0Z" style="fill:#231f20;fill-opacity:1;fill-rule:nonzero;stroke:none" transform="matrix(1.33333 0 0 -1.33333 502.62 556.875)"/></svg>